<svg width="78" height="37" viewBox="0 0 78 37" fill="none" xmlns="http://www.w3.org/2000/svg">
<path d="M76.9997 8.39062H71.2031V27.7288H76.9997V8.39062Z" fill="#007DC6"/>
<path d="M38.2412 30.4912H37.8086V32.8221H38.2412V30.4912Z" fill="#F58220"/>
<path d="M52.2559 8.39062C53.8132 9.1676 54.9379 11.3259 54.9379 12.9662H58.4851V27.6424H64.2817V12.9662H69.7323V8.39062H52.2559Z" fill="#007DC6"/>
<path d="M47.3241 15.7288C46.8915 16.0741 46.1128 16.3331 44.9881 16.3331H43.6039V12.1892H45.2477C46.2859 12.1892 47.0645 12.3618 47.4106 12.7935C47.8432 13.2252 48.0162 13.6568 48.0162 14.2611C48.0162 14.8654 47.7567 15.3834 47.3241 15.7288ZM52.0825 9.85825C51.0443 8.82228 49.487 8.39062 47.4106 8.39062H37.7207V27.6424H43.5173V20.1316H46.7185C49.0544 20.1316 50.7847 19.6136 51.9095 18.5777C53.0342 17.5417 53.6398 16.0741 53.6398 14.1748C53.6398 12.2755 53.1207 10.8079 52.0825 9.85825Z" fill="#007DC6"/>
<path d="M32.0979 29.6279C32.1844 28.5919 31.4058 27.7286 30.3675 27.6423C29.3293 27.556 28.4642 28.3329 28.3777 29.3689C28.2911 30.4049 29.0698 31.2682 30.108 31.3545C31.1462 31.4409 32.0114 30.6639 32.0979 29.6279Z" fill="#F58220"/>
<path d="M20.245 4.76458C15.0539 4.16026 10.2955 6.83652 7.87305 11.0667C10.6416 9.08113 14.1023 8.04516 17.8225 8.47681C25.0899 9.25379 30.5405 15.297 30.8 22.4624C31.2326 21.3401 31.4921 20.2178 31.6652 19.0092C32.3573 11.93 27.2528 5.54156 20.245 4.76458Z" fill="#007DC6"/>
<path d="M12.1125 31.3543C17.3035 31.8723 21.9754 29.196 24.3979 24.8795C21.6294 26.9514 18.1687 27.9874 14.535 27.6421C7.26758 26.9514 1.7305 20.9082 1.38444 13.8291C0.951853 14.9514 0.692303 16.0737 0.605786 17.2823C-0.086349 24.3615 5.01815 30.6636 12.1125 31.3543Z" fill="#F58220"/>
<path d="M29.9346 3.21069C30.1076 1.65674 28.8964 0.189111 27.3391 0.0164493C25.7818 -0.156213 24.311 1.05242 24.2245 2.60638C24.0515 4.16033 25.2627 5.62796 26.82 5.80062C28.3773 5.97328 29.7616 4.76465 29.9346 3.21069Z" fill="#007DC6"/>
<path d="M7.96 33.4265C8.13303 31.8726 6.92179 30.4049 5.36449 30.2323C3.80719 30.0596 2.3364 31.2682 2.24988 32.8222C2.07685 34.3762 3.28809 35.8438 4.84539 36.0164C6.40269 36.1891 7.87348 34.9805 7.96 33.4265Z" fill="#F58220"/>
<path d="M3.72022 6.57799C3.72022 5.54202 2.94157 4.67871 1.90337 4.67871C0.865169 4.67871 0 5.45569 0 6.49166C0 7.52763 0.778652 8.39094 1.81685 8.39094C2.76854 8.39094 3.63371 7.61396 3.72022 6.57799Z" fill="#F58220"/>
<path d="M13.2367 5.19664C12.5446 4.93765 11.7659 4.85132 10.9873 4.76499C6.48839 4.59233 2.59513 8.04556 2.33558 12.6211C2.16255 15.988 3.9794 18.9233 6.83446 20.3909C5.45019 18.6643 4.67154 16.506 4.84457 14.0887C5.01761 9.34053 8.73783 5.6283 13.2367 5.19664Z" fill="#F58220"/>
<path d="M18.6875 30.9233C19.3796 31.1823 20.1583 31.355 20.9369 31.355C25.5223 31.614 29.4156 28.1608 29.7617 23.6715C29.9347 20.3046 28.2044 17.3694 25.4358 15.8154C26.8201 17.542 27.5122 19.7867 27.3392 22.1176C26.9931 26.8658 23.2729 30.578 18.6875 30.9233Z" fill="#F58220"/>
<path d="M38.3277 29.3693C38.3277 29.1967 38.2412 29.1104 38.0681 29.1104C37.8951 29.1104 37.8086 29.1967 37.8086 29.3693C37.8086 29.542 37.8951 29.6283 38.0681 29.6283C38.1547 29.6283 38.3277 29.542 38.3277 29.3693Z" fill="#F58220"/>
<path d="M42.9122 32.7362H43.3448V31.0959C43.3448 30.8369 43.2583 30.6643 43.0852 30.5779C42.9122 30.4053 42.7392 30.4053 42.5661 30.4053C42.3931 30.4053 42.3066 30.4053 42.1335 30.4916C42.047 30.5779 41.874 30.6643 41.7875 30.8369V30.4053H41.4414V32.7362H41.7875V31.1822C41.7875 31.0959 41.874 31.0096 41.9605 30.9233C42.047 30.8369 42.1335 30.7506 42.2201 30.7506C42.3066 30.7506 42.3931 30.7506 42.3931 30.7506C42.4796 30.7506 42.6526 30.7506 42.7392 30.8369C42.8257 30.9233 42.9122 31.0096 42.9122 31.0959V32.7362Z" fill="#F58220"/>
<path d="M46.9781 31.2684C46.8916 31.1821 46.8051 31.0957 46.8051 31.0094C46.8051 31.0094 46.8051 30.9231 46.8051 30.8367C46.8051 30.7504 46.8916 30.7504 46.9781 30.6641C47.0646 30.6641 47.1511 30.5777 47.2376 30.5777C47.3242 30.5777 47.4972 30.5777 47.5837 30.6641C47.6702 30.7504 47.7567 30.8367 47.7567 30.9231L48.1028 30.7504C48.0163 30.5777 47.9298 30.4914 47.8433 30.4051C47.7567 30.3188 47.5837 30.3188 47.4107 30.2324C47.2376 30.2324 47.1511 30.2324 47.0646 30.2324C46.9781 30.2324 46.8051 30.3188 46.7185 30.4051C46.5455 30.4914 46.5455 30.6641 46.5455 30.8367C46.5455 31.0094 46.632 31.0957 46.7185 31.2684C46.8051 31.3547 46.8916 31.4411 47.0646 31.5274C47.2376 31.6137 47.4107 31.6137 47.5837 31.7C47.6702 31.7 47.7567 31.7864 47.7567 31.8727C47.8433 31.959 47.8433 31.959 47.8433 32.0454V32.1317C47.8433 32.1317 47.7567 32.218 47.6702 32.3044C47.5837 32.3907 47.4972 32.3907 47.4107 32.3907C47.3242 32.3907 47.1511 32.3907 47.0646 32.3044C46.9781 32.218 46.8916 32.1317 46.8051 32.0454L46.459 32.3044C46.5455 32.477 46.7185 32.5634 46.8916 32.6497C47.0646 32.736 47.2376 32.736 47.4107 32.736C47.4972 32.736 47.4972 32.736 47.5837 32.736C47.6702 32.736 47.6702 32.736 47.7567 32.736C47.9298 32.6497 48.0163 32.5634 48.1028 32.477C48.1893 32.3907 48.1893 32.218 48.1893 32.0454C48.1893 31.959 48.1893 31.7864 48.1028 31.7C48.0163 31.6137 47.9298 31.5274 47.8433 31.4411L46.9781 31.2684Z" fill="#F58220"/>
<path d="M52.6024 32.5635C52.7754 32.3909 52.862 32.2182 52.862 31.9592V30.4053H52.4294V31.9592C52.4294 32.1319 52.3429 32.2182 52.2563 32.3046C52.1698 32.3909 51.9968 32.4772 51.9103 32.4772C51.7372 32.4772 51.6507 32.3909 51.4777 32.3046C51.3912 32.1319 51.3047 32.0456 51.3047 31.8729V30.4916H50.8721V32.0456C50.8721 32.1319 50.8721 32.2182 50.9586 32.3909C51.0451 32.5635 51.1316 32.6499 51.3047 32.7362C51.4777 32.8225 51.6507 32.8225 51.9103 32.8225C51.9968 32.8225 52.0833 32.8225 52.2563 32.8225C52.3429 32.8225 52.5159 32.7362 52.6024 32.5635Z" fill="#F58220"/>
<path d="M57.014 30.9233L57.2735 30.5779C57.1005 30.4916 56.9275 30.4053 56.7544 30.4053C56.5814 30.4053 56.4949 30.4916 56.4083 30.6643C56.3218 30.7506 56.2353 30.9233 56.1488 31.0959V30.5779H55.8027V32.9089H56.2353V31.5276C56.2353 31.3549 56.3218 31.2686 56.4083 31.0959C56.4949 31.0096 56.6679 30.9233 56.7544 30.9233C56.8409 30.7506 56.9275 30.8369 57.014 30.9233Z" fill="#F58220"/>
<path d="M61.3403 32.0456C61.2538 32.2182 61.1673 32.3046 61.0807 32.3909C60.9942 32.4772 60.8212 32.4772 60.6482 32.4772C60.4751 32.4772 60.3021 32.3909 60.2156 32.3046C60.1291 32.2182 60.0425 32.1319 59.956 31.9592C59.8695 31.8729 59.8695 31.7002 59.8695 31.6139C59.8695 31.4412 59.956 31.1823 60.0425 31.0096C60.1291 30.8369 60.3021 30.7506 60.5616 30.6643C60.5616 30.6643 60.6482 30.6643 60.7347 30.6643C60.8212 30.6643 60.9077 30.6643 60.9077 30.6643C61.0807 30.7506 61.1673 30.8369 61.2538 31.0096C61.3403 31.1823 61.3403 31.3549 61.3403 31.5276C61.4268 31.7866 61.4268 31.8729 61.3403 32.0456ZM61.4268 30.4916V30.9233C61.3403 30.7506 61.1673 30.6643 61.0807 30.5779C60.9077 30.4916 60.7347 30.4916 60.5616 30.4916C60.5616 30.4916 60.5616 30.4916 60.4751 30.4916H60.3886C60.1291 30.5779 59.956 30.6643 59.8695 30.7506C59.783 30.9233 59.6965 31.0096 59.61 31.0959C59.5234 31.2686 59.5234 31.4412 59.5234 31.6139C59.5234 31.8729 59.61 32.0456 59.6965 32.2182C59.783 32.3909 59.956 32.5635 60.0425 32.6499C60.2156 32.7362 60.3021 32.8225 60.3886 32.8225C60.4751 32.8225 60.5616 32.8225 60.6482 32.8225C60.8212 32.8225 60.9942 32.7362 61.1673 32.6499C61.3403 32.5635 61.4268 32.3909 61.5133 32.3046V32.7362H61.8594V30.4053H61.4268V30.4916Z" fill="#F58220"/>
<path d="M66.272 32.7362H66.7045V31.0959C66.7045 30.8369 66.618 30.6643 66.445 30.5779C66.272 30.4053 66.0989 30.4053 65.9259 30.4053C65.7529 30.4053 65.6663 30.4053 65.4933 30.4916C65.4068 30.5779 65.2338 30.6643 65.2338 30.8369V30.4053H64.8877V32.7362H65.2338V31.1822C65.2338 31.0959 65.3203 31.0096 65.4068 30.9233C65.4933 30.8369 65.5798 30.7506 65.6663 30.7506C65.7529 30.7506 65.8394 30.7506 65.8394 30.7506C65.9259 30.7506 66.0989 30.7506 66.1854 30.8369C66.272 30.9233 66.3585 31.0096 66.3585 31.0959V32.7362H66.272Z" fill="#F58220"/>
<path d="M71.1171 32.736C71.2036 32.736 71.2901 32.6497 71.3766 32.5634V32.1317H71.2901C71.2036 32.218 71.1171 32.218 71.0305 32.3044C70.944 32.3907 70.771 32.3907 70.6845 32.3907C70.5114 32.3907 70.3384 32.3044 70.1654 32.218C70.0789 32.218 70.0789 32.1317 70.0789 32.1317L69.9923 32.0454C69.9058 31.8727 69.8193 31.7 69.8193 31.5274C69.8193 31.2684 69.9058 31.0957 70.0789 30.9231C70.1654 30.8367 70.2519 30.7504 70.3384 30.7504C70.4249 30.7504 70.598 30.6641 70.6845 30.6641C70.771 30.6641 70.8575 30.6641 70.944 30.6641C71.0305 30.6641 71.0305 30.7504 71.1171 30.7504C71.2036 30.8367 71.2901 30.8367 71.2901 30.8367V30.4051C71.1171 30.3188 70.944 30.2324 70.6845 30.2324C70.5114 30.2324 70.3384 30.2324 70.1654 30.3188C69.9923 30.4051 69.9058 30.4051 69.7328 30.5777C69.6463 30.6641 69.4732 30.8367 69.4732 31.0094C69.3867 31.1821 69.3867 31.3547 69.3867 31.5274C69.3867 31.7 69.3867 31.8727 69.4732 32.1317C69.5598 32.3907 69.7328 32.477 69.9058 32.6497C70.0789 32.736 70.3384 32.8223 70.598 32.8223H70.6845H70.771C70.944 32.8223 71.0305 32.8224 71.1171 32.736Z" fill="#F58220"/>
<path d="M75.4421 30.9227C75.5286 30.8363 75.7017 30.75 75.8747 30.75C76.0477 30.75 76.2208 30.8363 76.3938 30.9227C76.5668 31.009 76.6534 31.1817 76.6534 31.3543H75.1826C75.1826 31.1817 75.2691 31.009 75.4421 30.9227ZM76.6534 32.045C76.5668 32.1313 76.4803 32.304 76.3938 32.304C76.3073 32.3903 76.2208 32.3903 76.0477 32.4766C75.9612 32.4766 75.9612 32.4766 75.8747 32.4766C75.7017 32.4766 75.5286 32.3903 75.3556 32.2176C75.1826 32.045 75.1826 31.8723 75.1826 31.6133H76.9994C76.9994 31.3543 76.9994 31.0953 76.9129 30.9227C76.8264 30.75 76.7399 30.5774 76.4803 30.491C76.3073 30.4047 76.1343 30.3184 75.8747 30.3184C75.7882 30.3184 75.7017 30.3184 75.5287 30.3184C75.3556 30.3184 75.1826 30.491 75.0095 30.75C74.8365 31.009 74.75 31.268 74.75 31.527C74.75 31.786 74.8365 31.9586 74.923 32.1313C75.0095 32.304 75.1826 32.4766 75.3556 32.563C75.5286 32.6493 75.7017 32.7356 75.9612 32.7356C76.2208 32.7356 76.3938 32.6493 76.5668 32.563C76.7399 32.4766 76.9129 32.304 77.0859 32.1313L76.6534 32.045Z" fill="#F58220"/>
</svg>
