<svg width="16" height="16" viewBox="0 0 16 16" fill="none" xmlns="http://www.w3.org/2000/svg">
<path d="M5.59375 8.5812V8.79694C5.59375 9.14294 5.54685 9.45352 5.45305 9.72866C5.35925 10.0038 5.2269 10.2383 5.05598 10.4321C4.88506 10.6239 4.68079 10.7708 4.44317 10.873C4.20763 10.9751 3.94604 11.0262 3.6584 11.0262C3.37284 11.0262 3.11125 10.9751 2.87363 10.873C2.63809 10.7708 2.43382 10.6239 2.26082 10.4321C2.08782 10.2383 1.95337 10.0038 1.85749 9.72866C1.7637 9.45352 1.7168 9.14294 1.7168 8.79694V8.5812C1.7168 8.23311 1.7637 7.92254 1.85749 7.64948C1.95129 7.37435 2.08365 7.13985 2.25457 6.94601C2.42757 6.75216 2.63184 6.60417 2.86738 6.50203C3.105 6.3999 3.36659 6.34883 3.65215 6.34883C3.93979 6.34883 4.20138 6.3999 4.43692 6.50203C4.67454 6.60417 4.8788 6.75216 5.04972 6.94601C5.22273 7.13985 5.35613 7.37435 5.44993 7.64948C5.54581 7.92254 5.59375 8.23311 5.59375 8.5812ZM4.6464 8.79694V8.57495C4.6464 8.33316 4.62451 8.12055 4.58074 7.93713C4.53697 7.7537 4.47235 7.59946 4.38689 7.4744C4.30143 7.34933 4.19721 7.25554 4.07423 7.193C3.95125 7.12839 3.81056 7.09608 3.65215 7.09608C3.49373 7.09608 3.35304 7.12839 3.23006 7.193C3.10916 7.25554 3.00599 7.34933 2.92053 7.4744C2.83715 7.59946 2.77358 7.7537 2.72981 7.93713C2.68603 8.12055 2.66415 8.33316 2.66415 8.57495V8.79694C2.66415 9.03664 2.68603 9.24925 2.72981 9.43476C2.77358 9.61818 2.83819 9.77347 2.92365 9.90062C3.00911 10.0257 3.11333 10.1205 3.23631 10.1851C3.35929 10.2498 3.49999 10.2821 3.6584 10.2821C3.81681 10.2821 3.95751 10.2498 4.08049 10.1851C4.20346 10.1205 4.30664 10.0257 4.39002 9.90062C4.47339 9.77347 4.53697 9.61818 4.58074 9.43476C4.62451 9.24925 4.6464 9.03664 4.6464 8.79694Z" fill="#047CC4"/>
<path d="M6.26909 6.41136H7.96682C8.31491 6.41136 8.61402 6.46347 8.86414 6.56769C9.11635 6.67191 9.3102 6.82615 9.44569 7.03042C9.58117 7.23469 9.64891 7.48586 9.64891 7.78393C9.64891 8.0278 9.60723 8.23728 9.52385 8.41237C9.44256 8.58537 9.32688 8.73024 9.1768 8.84696C9.02881 8.9616 8.85476 9.05332 8.65466 9.1221L8.35764 9.27843H6.8819L6.87564 8.54681H7.97307C8.13774 8.54681 8.27426 8.51763 8.38265 8.45927C8.49104 8.4009 8.57233 8.31961 8.62652 8.21539C8.6828 8.11117 8.71094 7.99028 8.71094 7.85271C8.71094 7.7068 8.68384 7.5807 8.62965 7.4744C8.57546 7.36809 8.49312 7.2868 8.38265 7.23052C8.27218 7.17424 8.13357 7.14611 7.96682 7.14611H7.20706V10.9637H6.26909V6.41136ZM8.81412 10.9637L7.7761 8.93451L8.76722 8.92825L9.81775 10.9199V10.9637H8.81412Z" fill="#047CC4"/>
<path d="M13.01 9.45352H13.9448C13.9261 9.75992 13.8416 10.0319 13.6916 10.2696C13.5436 10.5072 13.3362 10.6927 13.0694 10.8261C12.8047 10.9595 12.4858 11.0262 12.1127 11.0262C11.8208 11.0262 11.5592 10.9762 11.3279 10.8761C11.0965 10.774 10.8985 10.6281 10.7338 10.4384C10.5713 10.2487 10.4472 10.0194 10.3618 9.75054C10.2763 9.48166 10.2336 9.18046 10.2336 8.84696V8.53118C10.2336 8.19768 10.2774 7.89648 10.3649 7.6276C10.4545 7.35663 10.5817 7.1263 10.7463 6.93663C10.9131 6.74695 11.1121 6.60104 11.3435 6.49891C11.5749 6.39677 11.8333 6.3457 12.1189 6.3457C12.4983 6.3457 12.8182 6.41449 13.0788 6.55206C13.3414 6.68963 13.5446 6.8793 13.6884 7.12109C13.8344 7.36288 13.9219 7.63802 13.9511 7.94651H13.0131C13.0027 7.76308 12.9662 7.6078 12.9037 7.48065C12.8411 7.35142 12.7463 7.25449 12.6192 7.18988C12.4941 7.12318 12.3273 7.08983 12.1189 7.08983C11.9626 7.08983 11.826 7.11901 11.7093 7.17737C11.5926 7.23573 11.4946 7.32432 11.4154 7.44313C11.3362 7.56194 11.2768 7.71202 11.2372 7.89336C11.1997 8.07261 11.1809 8.28314 11.1809 8.52492V8.84696C11.1809 9.0825 11.1987 9.28989 11.2341 9.46915C11.2695 9.64632 11.3237 9.7964 11.3967 9.91938C11.4717 10.0403 11.5676 10.132 11.6843 10.1945C11.8031 10.255 11.9459 10.2852 12.1127 10.2852C12.3086 10.2852 12.4701 10.2539 12.5973 10.1914C12.7244 10.1289 12.8213 10.0361 12.888 9.91312C12.9568 9.79014 12.9975 9.63694 13.01 9.45352Z" fill="#047CC4"/>
<path fill-rule="evenodd" clip-rule="evenodd" d="M0 3H4.74206V3.79638H0.796377V7.74206H0V3Z" fill="#047CC4"/>
<path fill-rule="evenodd" clip-rule="evenodd" d="M16 13.9316L11.2579 13.9316L11.2579 13.1353L15.2036 13.1353L15.2036 9.18958L16 9.18958L16 13.9316Z" fill="#047CC4"/>
<path fill-rule="evenodd" clip-rule="evenodd" d="M0 13.9316L-2.07282e-07 9.18958L0.796376 9.18958L0.796377 13.1353L4.01808 13.1353L4.01808 13.9316L0 13.9316Z" fill="#047CC4"/>
<path fill-rule="evenodd" clip-rule="evenodd" d="M16 3L16 7.74206L15.2036 7.74206L15.2036 3.79638L11.2579 3.79638L11.2579 3L16 3Z" fill="#047CC4"/>
</svg>
