<svg width="35" height="36" viewBox="0 0 35 36" fill="none" xmlns="http://www.w3.org/2000/svg">
<path d="M18.5628 0.458984C19.3026 0.594701 20.0628 0.662559 20.7822 0.879706C25.7301 2.39973 28.7096 5.69764 29.6734 10.7938C29.7141 11.0245 29.7413 11.262 29.7684 11.4995C29.7956 11.737 29.8023 11.9677 29.8227 12.212C30.2232 12.2663 30.6236 12.2935 31.0173 12.3749C33.1688 12.8363 34.6823 14.716 34.6823 16.9214C34.6823 18.1293 34.6823 19.3372 34.6823 20.545C34.6823 23.0897 32.8701 25.078 30.3453 25.2951C30.1349 25.3155 30.0331 25.3901 29.9449 25.5733C28.0784 29.3055 25.1192 31.6738 21.0809 32.712C20.884 32.7663 20.7347 32.8206 20.6465 33.0581C20.0764 34.5442 18.5153 35.3924 16.9678 35.0735C15.4068 34.7545 14.2598 33.3431 14.3208 31.8027C14.3819 30.1538 15.5357 28.8645 17.1511 28.6269C18.5289 28.4234 19.8863 29.1291 20.5243 30.3777C20.5854 30.4998 20.6397 30.6152 20.7143 30.7781C23.8364 29.9434 26.2052 28.1519 27.8816 25.3087C27.1554 25.3087 26.497 25.3087 25.8387 25.3087C25.669 25.3087 25.4993 25.3019 25.3364 25.2612C24.7731 25.1187 24.3998 24.664 24.393 24.0872C24.3862 20.5518 24.3862 17.0232 24.393 13.4878C24.393 12.7888 24.936 12.2663 25.6554 12.2527C26.2662 12.2392 26.8771 12.2527 27.4811 12.2527C27.5897 12.2527 27.7051 12.2527 27.8137 12.2527C27.7662 7.61124 23.9111 2.59652 17.8705 2.44045C11.8028 2.27759 7.49297 7.19052 7.38438 12.2527C7.83233 12.2527 8.27349 12.246 8.72145 12.2527C8.93185 12.2595 9.15582 12.2595 9.35944 12.307C9.92956 12.4428 10.2893 12.8974 10.2893 13.481C10.2893 17.0164 10.2961 20.545 10.2893 24.0804C10.2893 24.759 9.78024 25.2951 9.10153 25.3019C7.53369 25.3155 5.95907 25.3494 4.39124 25.2951C2.21935 25.2137 0.393606 23.5172 0.0610356 21.3661C0.0542485 21.305 0.0203127 21.244 -0.00683594 21.1829C-0.00683594 19.5814 -0.00683594 17.9732 -0.00683594 16.3717C0.0135255 16.3242 0.0474613 16.2767 0.0542485 16.2225C0.393606 14.1189 1.99537 12.5649 4.09261 12.3003C4.51341 12.246 4.941 12.246 5.3618 12.2188C5.4161 11.7167 5.45004 11.2349 5.5247 10.7599C5.59935 10.2849 5.68759 9.80307 5.83012 9.34163C7.25542 4.84941 10.2418 1.97901 14.8163 0.79149C15.4 0.642202 16.0041 0.567558 16.6013 0.458984C17.2529 0.458984 17.9045 0.458984 18.5628 0.458984ZM26.3816 23.3408C27.5626 23.3408 28.7028 23.3408 29.8431 23.3408C29.9992 23.3408 30.1621 23.3272 30.3182 23.3069C31.6688 23.1508 32.6801 22.0854 32.714 20.7215C32.748 19.4389 32.748 18.1496 32.714 16.8603C32.6801 15.4353 31.6145 14.3292 30.1892 14.2614C28.9607 14.2071 27.7323 14.241 26.497 14.241C26.4563 14.241 26.4156 14.2681 26.3816 14.2817C26.3816 17.3014 26.3816 20.3007 26.3816 23.3408ZM8.321 14.2614C8.24634 14.2546 8.19205 14.2342 8.13775 14.241C6.88891 14.2478 5.63329 14.2206 4.38445 14.2749C3.20349 14.3292 2.11076 15.3335 2.04288 16.5142C1.96144 17.9664 1.93429 19.4254 2.01574 20.8707C2.09718 22.289 3.12883 23.2458 4.56771 23.3136C5.79618 23.3747 7.02466 23.3272 8.25313 23.3272C8.27349 23.3272 8.28707 23.3069 8.321 23.2865C8.321 20.294 8.321 17.3014 8.321 14.2614ZM16.3095 31.8774C16.3095 32.5899 16.8864 33.1735 17.5923 33.1802C18.3049 33.187 18.9022 32.5831 18.9022 31.8638C18.9022 31.1445 18.3321 30.5813 17.6126 30.5745C16.8796 30.5677 16.3095 31.1377 16.3095 31.8774Z" fill="white"/>
</svg>
