<svg width="370" height="335" viewBox="0 0 370 335" fill="none" xmlns="http://www.w3.org/2000/svg">
<g filter="url(#filter0_d_5101_37)">
<rect x="10" y="6" width="350" height="315" rx="10" fill="url(#paint0_linear_5101_37)"/>
</g>
<mask id="mask0_5101_37" style="mask-type:alpha" maskUnits="userSpaceOnUse" x="10" y="6" width="350" height="315">
<rect x="10" y="6" width="350" height="315" rx="10" fill="url(#paint1_linear_5101_37)"/>
</mask>
<g mask="url(#mask0_5101_37)">
<g filter="url(#filter1_d_5101_37)">
<path d="M125.684 258.369C66.5642 232.458 14.2846 272.906 -4.46525 296.369L-22.6071 327.901L150.784 472.527L619.248 655.23L683.683 543.24L728.947 430.35L493.744 316.732C457.877 289.341 370.397 243.447 307.418 278.994C228.695 323.427 199.584 290.758 125.684 258.369Z" fill="#00619B" fill-opacity="0.47" shape-rendering="crispEdges"/>
</g>
</g>
<mask id="mask1_5101_37" style="mask-type:alpha" maskUnits="userSpaceOnUse" x="10" y="6" width="350" height="315">
<rect x="10" y="6" width="350" height="315" rx="10" fill="url(#paint2_linear_5101_37)"/>
</mask>
<g mask="url(#mask1_5101_37)">
<g filter="url(#filter2_d_5101_37)">
<path d="M-2.44695 239.455C-60.5198 211.276 -114.325 249.671 -133.969 272.39L-153.317 303.196L14.3479 454.423L475.392 655.115L544.111 545.702L593.71 434.648L363.08 312.015C328.299 283.257 242.66 234.012 178.353 267.095C97.9698 308.449 70.1442 274.678 -2.44695 239.455Z" fill="#00619B" fill-opacity="0.47" shape-rendering="crispEdges"/>
</g>
</g>
<defs>
<filter id="filter0_d_5101_37" x="0" y="0" width="370" height="335" filterUnits="userSpaceOnUse" color-interpolation-filters="sRGB">
<feFlood flood-opacity="0" result="BackgroundImageFix"/>
<feColorMatrix in="SourceAlpha" type="matrix" values="0 0 0 0 0 0 0 0 0 0 0 0 0 0 0 0 0 0 127 0" result="hardAlpha"/>
<feOffset dy="4"/>
<feGaussianBlur stdDeviation="5"/>
<feComposite in2="hardAlpha" operator="out"/>
<feColorMatrix type="matrix" values="0 0 0 0 0 0 0 0 0 0 0 0 0 0 0 0 0 0 0.08 0"/>
<feBlend mode="normal" in2="BackgroundImageFix" result="effect1_dropShadow_5101_37"/>
<feBlend mode="normal" in="SourceGraphic" in2="effect1_dropShadow_5101_37" result="shape"/>
</filter>
<filter id="filter1_d_5101_37" x="-32.6071" y="244.007" width="771.554" height="425.223" filterUnits="userSpaceOnUse" color-interpolation-filters="sRGB">
<feFlood flood-opacity="0" result="BackgroundImageFix"/>
<feColorMatrix in="SourceAlpha" type="matrix" values="0 0 0 0 0 0 0 0 0 0 0 0 0 0 0 0 0 0 127 0" result="hardAlpha"/>
<feOffset dy="4"/>
<feGaussianBlur stdDeviation="5"/>
<feComposite in2="hardAlpha" operator="out"/>
<feColorMatrix type="matrix" values="0 0 0 0 0 0 0 0 0 0 0 0 0 0 0 0 0 0 0.08 0"/>
<feBlend mode="normal" in2="BackgroundImageFix" result="effect1_dropShadow_5101_37"/>
<feBlend mode="normal" in="SourceGraphic" in2="effect1_dropShadow_5101_37" result="shape"/>
</filter>
<filter id="filter2_d_5101_37" x="-163.317" y="223.518" width="767.027" height="445.598" filterUnits="userSpaceOnUse" color-interpolation-filters="sRGB">
<feFlood flood-opacity="0" result="BackgroundImageFix"/>
<feColorMatrix in="SourceAlpha" type="matrix" values="0 0 0 0 0 0 0 0 0 0 0 0 0 0 0 0 0 0 127 0" result="hardAlpha"/>
<feOffset dy="4"/>
<feGaussianBlur stdDeviation="5"/>
<feComposite in2="hardAlpha" operator="out"/>
<feColorMatrix type="matrix" values="0 0 0 0 0 0 0 0 0 0 0 0 0 0 0 0 0 0 0.08 0"/>
<feBlend mode="normal" in2="BackgroundImageFix" result="effect1_dropShadow_5101_37"/>
<feBlend mode="normal" in="SourceGraphic" in2="effect1_dropShadow_5101_37" result="shape"/>
</filter>
<linearGradient id="paint0_linear_5101_37" x1="69.3214" y1="284.5" x2="291.068" y2="-15.764" gradientUnits="userSpaceOnUse">
<stop stop-color="#047CC4"/>
<stop offset="1" stop-color="#1395E3"/>
</linearGradient>
<linearGradient id="paint1_linear_5101_37" x1="69.3214" y1="284.5" x2="291.068" y2="-15.764" gradientUnits="userSpaceOnUse">
<stop stop-color="#047CC4"/>
<stop offset="1" stop-color="#1395E3"/>
</linearGradient>
<linearGradient id="paint2_linear_5101_37" x1="69.3214" y1="284.5" x2="291.068" y2="-15.764" gradientUnits="userSpaceOnUse">
<stop stop-color="#047CC4"/>
<stop offset="1" stop-color="#1395E3"/>
</linearGradient>
</defs>
</svg>
